<svg width="254" height="86" viewBox="0 0 254 86" fill="none" xmlns="http://www.w3.org/2000/svg">
<path d="M44.9486 67.5764C52.0407 67.5764 57.9611 66.158 62.0314 63.3828C56.9744 67.3914 50.4989 69.7966 43.5301 69.7966C39.5215 69.7966 35.7596 68.9949 32.306 67.5764C32.306 67.5764 44.9486 67.5764 44.9486 67.5764Z" fill="white"/>
<path d="M65.115 60.6068C67.1501 58.2016 68.2602 55.1181 68.1985 51.4178C68.1985 42.6606 61.9081 36.8018 53.5209 36.0618C58.7012 35.4451 63.6349 31.4365 63.6349 23.851C63.6349 20.1507 62.4631 17.3139 60.3663 15.0938C68.2602 20.4591 73.4405 29.5247 73.4405 39.8237C73.5022 47.9026 70.2954 55.1798 65.115 60.6068Z" fill="white"/>
<path d="M28.9142 65.9108C19.7869 60.7305 13.6815 50.9865 13.6815 39.8241C13.6815 30.2034 18.1835 21.6929 25.214 16.2042V63.3207C25.214 63.3207 37.3631 61.1005 37.6715 53.7617C37.6715 53.2683 37.6715 51.8499 37.6715 51.8499V13.3057H40.015C46.3671 13.3057 50.5606 16.6359 50.5606 24.8998C50.5606 33.2253 45.627 36.1855 40.4466 36.1855V36.9872C47.7855 36.9872 54.3226 40.7492 54.0142 50.3698C53.7675 60.4838 38.9666 64.4307 28.9142 65.9108Z" fill="white"/>
<path d="M87.193 42.1065V23.2969H97.0603C100.637 23.2969 102.487 25.5787 102.487 28.1072C102.487 30.4507 101.007 32.0541 99.2188 32.4241C101.192 32.7325 102.857 34.706 102.857 37.0494C102.857 39.8863 100.946 42.1065 97.3687 42.1065H87.193ZM98.4171 28.7856C98.4171 27.6138 97.5537 26.7504 96.1969 26.7504H91.2016V30.8207H96.1969C97.5537 30.8207 98.4171 30.019 98.4171 28.7856ZM98.7871 36.4944C98.7871 35.3227 97.9237 34.2743 96.3819 34.2743H91.2016V38.6529H96.3819C97.8621 38.6529 98.7871 37.8512 98.7871 36.4944Z" fill="white"/>
<path d="M116.487 42.1065L112.787 35.446H109.826V42.1065H105.818V23.2969H114.637C118.584 23.2969 120.927 25.887 120.927 29.3406C120.927 32.6708 118.83 34.4593 116.795 34.9527L121.05 42.1065C121.112 42.1064 116.487 42.1065 116.487 42.1065C116.487 42.1065 116.487 42.1064 116.487 42.1065ZM116.919 29.4023C116.919 27.7988 115.685 26.8738 114.082 26.8738H109.888V31.9308H114.082C115.685 31.9308 116.919 30.9441 116.919 29.4023Z" fill="white"/>
<path d="M123.085 32.7323C123.085 27.0585 127.217 22.9883 132.891 22.9883C138.565 22.9883 142.758 27.0585 142.758 32.7323C142.758 38.406 138.626 42.4762 132.891 42.4762C127.279 42.4763 123.085 38.406 123.085 32.7323ZM138.626 32.7323C138.626 29.217 136.345 26.5652 132.891 26.5652C129.438 26.5652 127.217 29.217 127.217 32.7323C127.217 36.2475 129.438 38.8994 132.891 38.8994C136.406 38.8993 138.626 36.2475 138.626 32.7323Z" fill="white"/>
<path d="M157.621 42.1065L156.449 38.8996H148.371L147.199 42.1065H142.635L149.912 23.2969H154.908L162.185 42.1065H157.621ZM152.441 27.3055L149.481 35.3843H155.339L152.441 27.3055Z" fill="white"/>
<path d="M163.911 42.1065V23.2969H171.312C177.232 23.2969 181.303 27.0588 181.303 32.7325C181.303 38.4062 177.232 42.1065 171.312 42.1065H163.911ZM177.232 32.7325C177.232 29.4023 175.197 26.8121 171.312 26.8121H167.92V38.5912H171.312C175.074 38.5912 177.232 35.9394 177.232 32.7325Z" fill="white"/>
<path d="M198.015 42.1065L194.685 29.1556L191.417 42.1065H187.161L181.796 23.2969H186.298L189.628 36.8645L193.205 23.2969H196.35L199.927 36.8645L203.196 23.2969H207.698L202.332 42.1065H198.015Z" fill="white"/>
<path d="M221.265 42.1065L220.094 38.8996H212.015L210.843 42.1065H206.279L213.556 23.2969H218.552L225.829 42.1065C225.829 42.1065 221.265 42.1065 221.265 42.1065ZM216.085 27.3055L213.125 35.3843H218.983L216.085 27.3055Z" fill="white"/>
<path d="M230.948 42.1065V34.3976L223.671 23.2969H228.234L232.921 30.8824L237.546 23.2969H242.11L234.895 34.3976V42.1065L230.948 42.1065Z" fill="white"/>
<path d="M87.8098 63.5053V49.0127H90.8934V63.5053H87.8098Z" fill="white"/>
<path d="M102.857 63.5053L95.9501 54.0697V63.5053H92.8666V49.0127H96.0118L102.734 58.0783V49.0127H105.817V63.5053H102.857Z" fill="white"/>
<path d="M107.853 63.5053V49.0127H118.09V51.7262H110.936V54.8097H117.967V57.5233H110.936V63.5053L107.853 63.5053Z" fill="white"/>
<path d="M118.645 56.2288C118.645 51.8501 121.852 48.7666 126.169 48.7666C130.548 48.7666 133.754 51.9118 133.754 56.2288C133.754 60.6074 130.548 63.6909 126.169 63.6909C121.852 63.7526 118.645 60.6074 118.645 56.2288ZM130.609 56.2288C130.609 53.5153 128.882 51.4801 126.231 51.4801C123.579 51.4801 121.852 53.5152 121.852 56.2288C121.852 58.9423 123.579 60.9774 126.231 60.9774C128.882 60.9774 130.609 58.9423 130.609 56.2288Z" fill="white"/>
<path d="M134.063 61.409L135.728 59.0655C136.776 60.1139 138.318 61.0389 140.353 61.0389C142.018 61.0389 142.882 60.2372 142.882 59.4355C142.882 56.8453 134.556 58.6338 134.556 53.2067C134.556 50.8016 136.653 48.8281 140.045 48.8281C142.327 48.8281 144.239 49.5065 145.657 50.8633L143.93 53.1451C142.758 52.035 141.217 51.5416 139.737 51.5416C138.441 51.5416 137.701 52.1583 137.701 53.0217C137.701 55.3035 146.027 53.7618 146.027 59.1888C146.027 61.8407 144.115 63.8141 140.23 63.8141C137.455 63.7524 135.42 62.8274 134.063 61.409Z" fill="white"/>
<path d="M151.023 63.5053V57.5849L145.472 49.0127H148.987L152.564 54.8098L156.141 49.0127H159.656L154.106 57.5849V63.5053H151.023Z" fill="white"/>
<path d="M158.67 61.409L160.335 59.0655C161.383 60.1139 162.925 61.0389 164.96 61.0389C166.625 61.0389 167.489 60.2372 167.489 59.4355C167.489 56.8453 159.163 58.6338 159.163 53.2067C159.163 50.8016 161.26 48.8281 164.652 48.8281C166.933 48.8281 168.845 49.5065 170.264 50.8633L168.537 53.1451C167.365 52.035 165.823 51.5416 164.343 51.5416C163.048 51.5416 162.308 52.1583 162.308 53.0217C162.308 55.3035 170.634 53.7618 170.634 59.1888C170.634 61.8407 168.722 63.8141 164.837 63.8141C162.061 63.7524 160.026 62.8274 158.67 61.409Z" fill="white"/>
</svg>
